<svg width="200" height="200" viewBox="0 0 200 200" fill="none" xmlns="http://www.w3.org/2000/svg">
  <path d="M40 20C40 17.7909 41.7909 16 44 16H156C158.209 16 160 17.7909 160 20V180C160 182.209 158.209 184 156 184H44C41.7909 184 40 182.209 40 180V20Z" fill="#F3F4F6"/>
  <path d="M60 48C60 45.7909 61.7909 44 64 44H136C138.209 44 140 45.7909 140 48V52C140 54.2091 138.209 56 136 56H64C61.7909 56 60 54.2091 60 52V48Z" fill="#E5E7EB"/>
  <path d="M60 76C60 73.7909 61.7909 72 64 72H136C138.209 72 140 73.7909 140 76V80C140 82.2091 138.209 84 136 84H64C61.7909 84 60 82.2091 60 80V76Z" fill="#E5E7EB"/>
  <path d="M60 104C60 101.791 61.7909 100 64 100H136C138.209 100 140 101.791 140 104V108C140 110.209 138.209 112 136 112H64C61.7909 112 60 110.209 60 108V104Z" fill="#E5E7EB"/>
  <path d="M60 132C60 129.791 61.7909 128 64 128H96C98.2091 128 100 129.791 100 132V136C100 138.209 98.2091 140 96 140H64C61.7909 140 60 138.209 60 136V132Z" fill="#E5E7EB"/>
  <rect x="60" y="160" width="80" height="4" rx="2" fill="#E5E7EB"/>
</svg> 